<?xml version="1.0" encoding="utf-8"?>
<!-- Generator: Adobe Illustrator 19.1.0, SVG Export Plug-In . SVG Version: 6.00 Build 0)  -->
<svg version="1.1" id="Layer_1" xmlns="http://www.w3.org/2000/svg" xmlns:xlink="http://www.w3.org/1999/xlink" x="0px" y="0px"
	 viewBox="0 0 85 28.3" style="enable-background:new 0 0 85 28.3;" xml:space="preserve">
<style type="text/css">
	.st0{fill:#2075BC;}
</style>
<g>
	<path class="st0" d="M85,0H0v28.3h85V0z M84.5,27.8h-84V0.5h84V27.8z"/>
	<polygon class="st0" points="68.7,19.6 68.6,23 68.4,23 68.3,19.6 67.8,3.2 66,3.2 66.9,24.9 69.3,24.9 70.8,3.2 69.6,3.2 	"/>
	<g>
		<path class="st0" d="M58.2,22.7c0,1.1-0.1,1.3-1,1.3h-0.3V4.1h0.3c0.9,0,1,0.2,1,1.3V22.7z M57.9,3.2h-2.7v21.8h2.7
			c1.7,0,2-0.6,2-2.2V5.3C59.9,3.7,59.6,3.2,57.9,3.2"/>
	</g>
	<polygon class="st0" points="61.6,24.9 64.8,24.9 64.8,24 63.3,24 63.3,13.6 64.6,13.6 64.6,12.6 63.3,12.6 63.3,4.2 64.8,4.2 
		64.8,3.2 61.6,3.2 	"/>
	<path class="st0" d="M15.6,14.3L16,7.9l0.1-3h0.1l0.1,3l0.3,6.4H15.6z M15.4,3.2l-1.6,21.8h1.1l0.6-9.7h1.2l0.5,9.7H19L17.7,3.2
		H15.4z"/>
	<polygon class="st0" points="36.6,3.2 34.9,3.2 34.9,24.9 38.4,24.9 38.4,23.8 36.6,23.8 	"/>
	<polygon class="st0" points="39.3,24.9 42.5,24.9 42.5,24 40.9,24 40.9,13.6 42.3,13.6 42.3,12.6 40.9,12.6 40.9,4.2 42.5,4.2 
		42.5,3.2 39.3,3.2 	"/>
	<polygon class="st0" points="26.3,4.1 27.7,4.1 27.7,24.9 29.4,24.9 29.4,4.1 30.8,4.1 30.8,3.2 26.3,3.2 	"/>
	<g>
		<path class="st0" d="M31.9,23.1c-0.6,0-1,0.5-1,1c0,0.6,0.5,1,1,1c0.6,0,1-0.5,1-1C32.9,23.6,32.5,23.1,31.9,23.1"/>
		<path class="st0" d="M46.9,11.7c0,0.7,0,0.9-0.5,0.9h-0.9V4.1h0.9c0.4,0,0.5,0.2,0.5,0.7V11.7z M46.9,23.3c0,0.6-0.1,0.7-0.5,0.7
			h-0.8V13.5h0.8c0.5,0,0.5,0.3,0.5,1V23.3z M47.5,3.2h-3.6v21.8h3.5c1.1,0,1.2-0.5,1.2-1.4V15c0-1.2-0.2-1.7-0.6-1.8
			c0.5-0.2,0.6-0.6,0.6-1.3V4.5C48.6,3.7,48.3,3.2,47.5,3.2"/>
		<path class="st0" d="M23.6,13.3c0,0.7,0,1-0.6,1h-0.7V4.1h0.3c0.9,0,1,0.2,1,1.3V13.3z M23.3,3.2h-2.7v21.8h1.7v-9.8H23
			c0.5,0,0.6,0.3,0.6,1v8.8h1.7v-8.3c0-1.2-0.1-1.6-0.6-1.9c0.5-0.3,0.6-0.6,0.6-1.9V5.3C25.2,3.7,25,3.2,23.3,3.2"/>
	</g>
	<polygon class="st0" points="50.5,24.9 53.8,24.9 53.8,24 52.2,24 52.2,13.6 53.5,13.6 53.5,12.6 52.2,12.6 52.2,4.2 53.8,4.2 
		53.8,3.2 50.5,3.2 	"/>
</g>
</svg>
